<svg viewBox="0 0 1499 1066" fill="100%" xmlns="http://www.w3.org/2000/svg">
<path d="M352.5 65.3641C195.5 -45 50.387 5.05059 3 65.3642V1013.74H1499V41.4466C1459.5 143 1399.84 94.1252 1337 143C1268.7 153.596 1201.48 195.165 1159.42 204.709C1155.49 205.601 1165.32 203.371 1154.13 201.826C1142.94 200.281 1120.36 188.013 1075.19 163.476C1014.29 130.395 916.786 87.6165 866 143C783.04 233.47 614.097 215.108 594.623 188.071C575.149 161.034 509.067 175.424 352.5 65.3641Z" fill="#383645"/>
<path d="M88.5 127.546C59.5097 76.9623 19.8555 84.2041 3.00973 124.988C2.3196 126.659 2 128.472 2 130.28V996.476C2 1004.76 8.71572 1011.48 17 1011.48H1485C1493.28 1011.48 1500 1004.76 1500 996.476V364.855C1500 361.017 1498.49 357.352 1496.03 354.405C1455.28 305.555 1416.98 173.022 1323.5 139.5C1251 113.5 1041.2 231 954 231C866.798 231 618.64 178.682 598.008 178.682C577.375 178.682 430.701 240.741 398 231C372.263 223.334 277.262 208.397 241.942 180.091C240.787 179.165 239.583 178.373 238.207 177.828C198.83 162.223 117.574 178.276 88.5 127.546Z" fill="#343242"/>
<path d="M164.33 650.057C148.123 663.085 59.2969 588.37 14.5388 547.261C12.931 545.784 10.8592 544.988 8.67608 544.988C3.88441 544.988 0 548.872 0 553.664V1049.91C0 1058.75 7.16345 1065.91 16 1065.91H1484C1492.84 1065.91 1500 1058.75 1500 1049.91V426.347C1500 424.352 1499.64 422.374 1498.85 420.543C1472.59 359.621 1375.4 319.988 1326.79 306.836C1324.91 306.329 1323.06 306.193 1321.13 306.411C1219.04 317.961 1016.36 361.07 1000 444.343C979.361 549.412 762.072 734.112 684.969 717.523C625.671 704.764 491.566 636.469 424.778 600.091C419.944 597.459 417.487 591.986 414.136 587.619C387.142 552.444 183.727 634.465 164.33 650.057Z" fill="#333140"/>
</svg>
