<svg width="184" height="45" viewBox="0 0 184 45" fill="none" xmlns="http://www.w3.org/2000/svg">
<path fill-rule="evenodd" clip-rule="evenodd" d="M14 0C6.26801 0 0 6.26801 0 14V17.8769C0.690446 17.6902 1.39179 17.5377 2.10158 17.4204C6.00328 16.7758 10.0079 17.2217 13.6708 18.7085C17.3337 20.1954 20.5116 22.6652 22.8517 25.8436C25.1919 29.022 26.6027 32.7847 26.9277 36.7141C27.1599 39.5227 26.8308 42.338 25.9718 45H31C38.732 45 45 38.732 45 31V14C45 6.26801 38.732 0 31 0H14ZM9.67831 44.3202L11.2098 41.588C11.7556 40.614 12.0366 39.5146 12.0247 38.399C12.0129 37.2833 11.7087 36.1901 11.1423 35.2278C10.5759 34.2655 9.76703 33.4676 8.79586 32.9131C7.82469 32.3585 6.72498 32.0668 5.6058 32.0667H0.0400283C0.473528 37.8207 4.38518 42.6041 9.67831 44.3202Z" fill="#58C08B"/>
<path d="M89.5679 16.6709H82.9541V34H77.2803V16.6709H70.5981V11.561H89.5679V16.6709ZM92.0801 9.98877H97.5146V19.5078C97.9818 18.8812 98.6141 18.397 99.4116 18.0552C100.221 17.7134 101.104 17.5425 102.061 17.5425C103.997 17.5425 105.467 18.1406 106.47 19.3369C107.472 20.5218 107.974 22.1169 107.974 24.1221V34H102.556V25.4209C102.556 24.179 102.288 23.3758 101.753 23.0112C101.217 22.6353 100.688 22.4473 100.164 22.4473C98.3634 22.4473 97.4691 23.4043 97.4805 25.3184V34H92.0801V9.98877ZM111.887 34V11.561H117.561V34H111.887ZM127.849 34.4614C125.776 34.4614 124.084 33.9772 122.773 33.0088C121.475 32.0404 120.751 30.7131 120.603 29.0269H125.969C125.992 29.494 126.169 29.8586 126.499 30.1206C126.841 30.3713 127.279 30.4966 127.815 30.4966C128.259 30.4966 128.612 30.4168 128.875 30.2573C129.148 30.0978 129.285 29.8529 129.285 29.5225C129.285 29.2148 129.188 28.9984 128.994 28.873C128.8 28.7477 128.504 28.6395 128.105 28.5483L125.645 27.9502C122.523 27.1982 120.962 25.5633 120.962 23.0454C120.962 21.3934 121.589 20.0661 122.842 19.0635C124.106 18.0495 125.753 17.5425 127.781 17.5425C129.763 17.5425 131.37 18.0324 132.6 19.0122C133.842 19.992 134.491 21.2795 134.548 22.8745H129.216C129.216 22.4757 129.068 22.1624 128.772 21.9346C128.487 21.6953 128.111 21.5757 127.644 21.5757C127.268 21.5757 126.966 21.6611 126.738 21.832C126.522 21.9915 126.414 22.2194 126.414 22.5156C126.414 22.8005 126.505 22.9998 126.687 23.1138C126.881 23.2277 127.234 23.3473 127.747 23.4727L130.652 24.1733C132.099 24.5265 133.164 25.1247 133.848 25.9678C134.543 26.7995 134.89 27.7964 134.89 28.9585C134.89 30.6333 134.246 31.972 132.959 32.9746C131.683 33.9658 129.98 34.4614 127.849 34.4614ZM144.546 11.561H149.929L158.235 34H152.202L150.664 29.625H143.674L142.085 34H136.172L144.546 11.561ZM149.058 24.9082L148.494 23.3188L147.622 20.5674L147.246 19.3711C147.178 19.6787 147.007 20.2256 146.733 21.0117C146.46 21.7865 146.187 22.5555 145.913 23.3188L145.315 24.9082H149.058ZM169.172 17.9697C169.708 17.9697 170.186 18.0153 170.608 18.1064V22.8403L169.941 22.8062C168.54 22.8062 167.463 23.165 166.711 23.8828C165.971 24.5892 165.601 25.5918 165.601 26.8906V34H160.166V18.1064H165.139L165.498 20.1401C165.76 19.4224 166.216 18.8812 166.865 18.5166C167.515 18.152 168.284 17.9697 169.172 17.9697ZM183.442 22.584H180.503V34H175.068V22.584H172.163V18.1064H175.068V14.022H180.503V18.1064H183.442V22.584Z" fill="#58C08B"/>
</svg>
