<svg width="1499" height="505" viewBox="0 0 1499 505" fill="none" xmlns="http://www.w3.org/2000/svg">
<path d="M352.5 30.9866C195.5 -21.2989 50.387 2.41278 3 30.9866V480.286H1499V19.6556C1459.5 67.767 1399.84 44.6123 1337 67.767C1270.94 72.6219 1205.9 91.2014 1163.65 96.5079C1161.44 96.786 1160.33 96.925 1154.52 96.5626C1148.71 96.2003 1123.26 89.714 1072.35 76.7416C1011.3 61.1832 916.005 41.9322 866 67.767C783.04 110.628 614.097 101.929 594.623 89.1196C575.149 76.3106 509.067 83.1279 352.5 30.9866Z" fill="#383645"/>
<path d="M88.5 60.4455C60.8817 37.6154 23.585 39.6488 5.5512 56.5985C3.07874 58.9223 2 62.2929 2 65.686V464.211C2 472.496 8.71572 479.211 17 479.211H1485C1493.28 479.211 1500 472.496 1500 464.211V179.311C1500 173.629 1496.75 168.5 1491.94 165.464C1452.65 140.623 1413.84 81.458 1323.5 66.1088C1251 53.7912 1041.2 109.458 954 109.458C866.798 109.458 618.64 84.6716 598.008 84.6716C577.375 84.6716 430.701 114.072 398 109.458C372.15 105.81 276.426 98.6867 241.48 85.1618C240.633 84.834 239.827 84.5803 238.936 84.4064C199.841 76.7781 117.755 84.6285 88.5 60.4455Z" fill="#343242"/>
<path d="M164.33 307.988C148.052 314.187 58.5186 278.453 13.9541 259.033C12.6906 258.482 11.3601 258.211 9.9819 258.211C4.46905 258.211 0 262.68 0 268.192V489C0 497.836 7.16345 505 16 505H1484C1492.84 505 1500 497.836 1500 489V206.326C1500 202.608 1498.79 198.958 1496.05 196.446C1465.96 168.891 1371.88 151.045 1325.34 145.201C1324.42 145.086 1323.56 145.055 1322.63 145.104C1221.04 150.455 1016.44 170.885 1000 210.529C979.361 260.306 762.072 347.809 684.969 339.95C626.48 333.988 495.211 302.428 427.548 285.03C421.186 283.394 415.14 277.947 408.779 276.306C367.174 265.567 182.753 300.972 164.33 307.988Z" fill="#333140"/>
</svg>
