<svg width="184" height="330" viewBox="0 0 184 330" fill="none" xmlns="http://www.w3.org/2000/svg">
<path d="M179.75 51.7895H179.751C180.745 51.7883 181.699 51.3905 182.401 50.6843C183.104 49.9781 183.499 49.0211 183.5 48.0235V48.0229V4.26659V4.26601C183.499 3.26837 183.104 2.31142 182.401 1.60523C181.699 0.898935 180.745 0.501171 179.751 0.5H179.75L4.25 0.5L4.24941 0.5C3.25454 0.501173 2.30127 0.898934 1.59857 1.60522C0.895951 2.31143 0.501164 3.26838 0.5 4.26601V4.26659L0.5 48.0229L0.5 48.0235C0.501166 49.0211 0.895953 49.978 1.59857 50.6842C2.30127 51.3905 3.25453 51.7883 4.24941 51.7895H4.25H179.75ZM3.2262 3.23395C3.4983 2.96046 3.86665 2.80708 4.25033 2.80661L179.749 2.80662C179.75 2.80662 179.75 2.80662 179.75 2.80662C180.133 2.80709 180.502 2.96047 180.774 3.23395C181.046 3.50756 181.2 3.87909 181.2 4.26713V48.0223C181.2 48.4104 181.046 48.7819 180.774 49.0555C180.502 49.3291 180.133 49.4824 179.749 49.4829H4.25054C3.86678 49.4824 3.49833 49.3291 3.22619 49.0555C2.95402 48.782 2.80045 48.4105 2.79998 48.0226V4.26691C2.80045 3.87895 2.95402 3.50752 3.2262 3.23395Z" fill="#58C08B" stroke="#58C08B"/>
<path d="M179.75 224.211H179.751C180.746 224.209 181.699 223.81 182.402 223.102C183.104 222.393 183.499 221.434 183.5 220.434V220.434V139.18V139.18C183.499 138.18 183.104 137.221 182.402 136.512C181.699 135.804 180.746 135.405 179.751 135.404H179.75L4.25 135.404L4.2494 135.404C3.25402 135.405 2.30058 135.804 1.59801 136.512C0.89557 137.221 0.501165 138.18 0.5 139.18V139.18L0.5 220.434L0.5 220.434C0.501178 221.434 0.895594 222.393 1.59803 223.102C2.3006 223.81 3.25403 224.209 4.2494 224.211H4.25H179.75ZM3.22675 138.143C3.49897 137.868 3.86716 137.715 4.25033 137.714C4.2504 137.714 4.25047 137.714 4.25054 137.714L179.75 137.714C180.133 137.715 180.501 137.868 180.773 138.143C181.046 138.418 181.2 138.791 181.2 139.181V220.433C181.2 220.823 181.046 221.197 180.773 221.471C180.501 221.746 180.133 221.899 179.749 221.9H4.25054C3.86729 221.899 3.49902 221.746 3.22675 221.471C2.9544 221.197 2.80045 220.823 2.79998 220.433V139.181C2.80045 138.791 2.9544 138.418 3.22675 138.143Z" fill="#58C08B" stroke="#58C08B"/>
<path d="M178.947 118.842H178.948C179.944 118.841 180.898 118.443 181.602 117.737C182.305 117.031 182.701 116.074 182.702 115.076V115.076V71.3192V71.3186C182.701 70.3208 182.305 69.3638 181.602 68.6576C180.898 67.9514 179.944 67.5538 178.948 67.5526H178.947L100.842 67.5526L100.842 67.5526C99.8457 67.5538 98.8914 67.9514 98.1878 68.6576C97.4843 69.3638 97.0889 70.3208 97.0878 71.3186V71.3192L97.0878 115.076L97.0878 115.076C97.0889 116.074 97.4843 117.031 98.1878 117.737C98.8914 118.443 99.8457 118.841 100.842 118.842H100.842H178.947ZM179.973 70.2868L180.328 69.9339L179.973 70.2868C180.246 70.5604 180.4 70.9319 180.4 71.3197V115.075C180.4 115.463 180.246 115.834 179.973 116.108C179.701 116.382 179.332 116.535 178.947 116.535H100.843C100.458 116.535 100.089 116.382 99.8162 116.108C99.5437 115.834 99.39 115.463 99.3895 115.075V71.3196C99.39 70.9318 99.5437 70.5604 99.8162 70.2868C100.089 70.0133 100.458 69.8597 100.842 69.8593C100.843 69.8593 100.843 69.8593 100.843 69.8593L178.947 69.8592C179.332 69.8597 179.701 70.0132 179.973 70.2868Z" fill="#58C08B" stroke="#58C08B"/>
<path d="M82.3597 328.781H82.3602C83.3539 328.78 84.3075 328.388 85.0116 327.691C85.7158 326.993 86.1129 326.047 86.114 325.058V325.058V244.495V244.494C86.1129 243.506 85.7158 242.559 85.0116 241.862C84.3075 241.164 83.3539 240.773 82.3602 240.772H82.3597L4.25438 240.772L4.25379 240.772C3.26014 240.773 2.30656 241.164 1.60248 241.862C0.898239 242.559 0.501185 243.506 0.5 244.494V244.495L0.5 325.058L0.5 325.058C0.501169 326.047 0.898214 326.993 1.60246 327.691C2.30654 328.388 3.26013 328.78 4.2538 328.781H4.25438H82.3597ZM3.22611 243.483C3.49813 243.214 3.86795 243.062 4.2547 243.061H82.3593C82.7461 243.062 83.1159 243.214 83.3879 243.483C83.6598 243.753 83.8119 244.117 83.8123 244.496V325.057C83.8119 325.436 83.6598 325.8 83.3879 326.069C83.1158 326.339 82.7459 326.491 82.3591 326.491H4.25491C3.86808 326.491 3.49818 326.339 3.22611 326.069C2.95425 325.8 2.8022 325.436 2.80173 325.057V244.495C2.8022 244.117 2.95425 243.753 3.22611 243.483Z" fill="#58C08B" stroke="#58C08B"/>
<path d="M178.947 328.781H178.948C179.942 328.78 180.895 328.388 181.599 327.691C182.304 326.993 182.701 326.047 182.702 325.058V325.058V244.495V244.494C182.701 243.506 182.304 242.559 181.599 241.862C180.895 241.164 179.942 240.773 178.948 240.772H178.947L100.842 240.772L100.842 240.772C99.8479 240.773 98.8943 241.164 98.1902 241.862C97.486 242.559 97.089 243.506 97.0878 244.494V244.495L97.0878 325.058L97.0878 325.058C97.0889 326.047 97.486 326.993 98.1902 327.691C98.8943 328.388 99.8479 328.78 100.842 328.781H100.842H178.947ZM99.8139 243.483C100.086 243.214 100.456 243.062 100.842 243.061H178.947C179.334 243.062 179.704 243.214 179.976 243.483C180.248 243.753 180.4 244.117 180.4 244.496V325.057C180.4 325.436 180.248 325.8 179.976 326.069C179.704 326.339 179.334 326.491 178.947 326.491H100.843C100.456 326.491 100.086 326.339 99.8139 326.069C99.542 325.8 99.39 325.436 99.3895 325.057V244.495C99.39 244.117 99.542 243.753 99.8139 243.483Z" fill="#58C08B" stroke="#58C08B"/>
<path d="M30.5351 177.912C37.865 177.912 43.807 171.97 43.807 164.64C43.807 157.31 37.865 151.368 30.5351 151.368C23.2052 151.368 17.2632 157.31 17.2632 164.64C17.2632 171.97 23.2052 177.912 30.5351 177.912Z" fill="#58C08B" stroke="#58C08B"/>
<path d="M164.847 161.149L164.849 161.149C165.577 161.147 166.264 160.83 166.764 160.283C167.262 159.738 167.535 159.007 167.535 158.254C167.535 157.501 167.262 156.771 166.764 156.226C166.264 155.679 165.577 155.362 164.849 155.36H164.847H61.4649C60.7358 155.36 60.0465 155.676 59.5455 156.223C59.0459 156.769 58.772 157.5 58.772 158.254C58.772 159.009 59.0459 159.74 59.5455 160.285C60.0465 160.832 60.7358 161.149 61.4649 161.149L164.847 161.149Z" fill="#58C08B" stroke="#58C08B"/>
<path d="M61.4856 173.921H61.4839C60.7502 173.919 60.0558 173.602 59.5507 173.054C59.0469 172.508 58.7705 171.776 58.772 171.02C58.7735 170.265 59.0527 169.534 59.5588 168.99C60.066 168.444 60.7616 168.131 61.4953 168.132M61.4856 173.921L61.4956 168.132C61.4955 168.132 61.4954 168.132 61.4953 168.132M61.4856 173.921H106.543M61.4856 173.921H106.543M61.4953 168.132H106.543M61.4953 168.132H106.543M106.543 173.921C107.277 173.921 107.973 173.606 108.479 173.06M106.543 173.921L108.479 173.06M108.479 173.06C108.985 172.514 109.263 171.782 109.263 171.026M108.479 173.06L109.263 171.026M109.263 171.026C109.263 170.27 108.985 169.538 108.479 168.993M109.263 171.026L108.479 168.993M108.479 168.993C107.973 168.446 107.277 168.132 106.543 168.132M108.479 168.993L106.543 168.132" fill="#58C08B" stroke="#58C08B"/>
<path d="M20.8007 188.886C18.89 188.886 17.2632 190.325 17.2632 192.18C17.2632 194.035 18.89 195.474 20.8007 195.474H163.998C165.908 195.474 167.535 194.035 167.535 192.18C167.535 190.325 165.908 188.886 163.998 188.886H20.8007Z" fill="#58C08B" stroke="#58C08B"/>
<path d="M20.8007 203.254C19.8795 203.254 19.0217 203.5 18.3794 203.922C17.7416 204.341 17.2632 204.977 17.2632 205.75C17.2632 206.523 17.7416 207.159 18.3794 207.578C19.0217 208 19.8795 208.246 20.8007 208.246H163.998C164.919 208.246 165.777 208 166.419 207.578C167.057 207.159 167.535 206.523 167.535 205.75C167.535 204.977 167.057 204.341 166.419 203.922C165.777 203.5 164.919 203.254 163.998 203.254H20.8007Z" fill="#58C08B" stroke="#58C08B"/>
<path d="M31.7325 37.4211C39.2682 37.4211 45.4035 31.4934 45.4035 24.1491C45.4035 16.8048 39.2682 10.8772 31.7325 10.8772C24.1968 10.8772 18.0614 16.8048 18.0614 24.1491C18.0614 31.4934 24.1968 37.4211 31.7325 37.4211Z" fill="#58C08B" stroke="#58C08B"/>
<path d="M167.197 20.6579C167.56 20.659 167.919 20.5831 168.252 20.4355C168.586 20.288 168.887 20.0721 169.139 19.8023C169.391 19.5325 169.59 19.2139 169.725 18.8655C169.86 18.5171 169.929 18.1447 169.93 17.7692C169.931 17.3937 169.863 17.021 169.729 16.6721C169.595 16.3231 169.398 16.0036 169.147 15.7328C168.896 15.4618 168.596 15.2446 168.263 15.0955L168.059 15.5519L168.263 15.0955C167.93 14.9464 167.571 14.8688 167.208 14.8684H167.207H167.207H167.207H167.207H167.207H167.207H167.207H167.206H167.206H167.206H167.206H167.206H167.206H167.206H167.206H167.206H167.206H167.206H167.206H167.206H167.206H167.205H167.205H167.205H167.205H167.205H167.205H167.205H167.205H167.205H167.205H167.205H167.205H167.205H167.205H167.205H167.204H167.204H167.204H167.204H167.204H167.204H167.204H167.204H167.204H167.204H167.204H167.204H167.204H167.204H167.204H167.203H167.203H167.203H167.203H167.203H167.203H167.203H167.203H167.203H167.203H167.203H167.203H167.203H167.203H167.202H167.202H167.202H167.202H167.202H167.202H167.202H167.202H167.202H167.202H167.202H167.202H167.202H167.202H167.202H167.201H167.201H167.201H167.201H167.201H167.201H167.201H167.201H167.201H167.201H167.201H167.201H167.201H167.201H167.201H167.2H167.2H167.2H167.2H167.2H167.2H167.2H167.2H167.2H167.2H167.2H167.2H167.2H167.2H167.2H167.199H167.199H167.199H167.199H167.199H167.199H167.199H167.199H167.199H167.199H167.199H167.199H167.199H167.199H167.198H167.198H167.198H167.198H167.198H167.198H167.198H167.198H167.198H167.198H167.198H167.198H167.198H167.198L62.2903 14.8684L62.289 14.8684C61.555 14.8703 60.8598 15.1857 60.3534 15.7319C59.8482 16.2769 59.5702 17.0079 59.5702 17.7631C59.5702 18.5184 59.8482 19.2494 60.3534 19.7944C60.8598 20.3406 61.555 20.656 62.289 20.6579H62.2903H167.197ZM167.197 20.6579C167.196 20.6579 167.196 20.6579 167.196 20.6579L167.198 20.1579M167.197 20.6579H167.198V20.1579M167.198 20.1579H62.2903L169.258 18.6848C169.146 18.9753 168.981 19.239 168.774 19.4609C168.567 19.6829 168.321 19.8587 168.05 19.9782C167.78 20.0978 167.49 20.1589 167.198 20.1579Z" fill="#58C08B" stroke="#58C08B"/>
<path d="M62.2872 28.4386L62.2865 28.4386L107.335 33.4298L107.336 32.9298V33.4298H107.335C108.041 33.4311 108.727 33.1811 109.241 32.7209C109.757 32.2591 110.06 31.6197 110.061 30.9396C110.063 30.2594 109.763 29.6188 109.249 29.1549C108.737 28.6926 108.052 28.4399 107.346 28.4386H107.345H107.336L62.2872 28.4386Z" fill="#58C08B" stroke="#58C08B"/>
<path d="M82.4211 118.842H83.2865L82.8543 118.092L60.6448 79.5703C60.2174 78.829 59.6026 78.2133 58.8622 77.7851C58.1217 77.357 57.2817 77.1316 56.4265 77.1316C55.5714 77.1316 54.7314 77.357 53.991 77.7851L54.2397 78.2153L53.9909 77.7851C53.2505 78.2133 52.6357 78.829 52.2083 79.5703L40.2245 100.356L33.355 88.4411C33.355 88.4411 33.355 88.4411 33.355 88.441C33.0048 87.8336 32.5011 87.3291 31.8944 86.9783C31.2876 86.6275 30.5993 86.4428 29.8987 86.4428C29.198 86.4428 28.5096 86.6275 27.9029 86.9783C27.2962 87.3291 26.7925 87.8336 26.4423 88.441C26.4423 88.4411 26.4423 88.4411 26.4423 88.4411L9.34759 118.092L8.91536 118.842H9.78076H82.4211ZM79.3205 116.55H12.8813L28.4266 89.5867L28.4266 89.5866C28.5759 89.3276 28.7905 89.1127 29.0489 88.9632C29.3073 88.8138 29.6004 88.7352 29.8987 88.7352C30.197 88.7352 30.4901 88.8138 30.7485 88.9632C31.0069 89.1127 31.2215 89.3277 31.3708 89.5866L31.3708 89.5867L39.7914 104.192L40.2245 104.943L40.6577 104.192L54.1926 80.716L54.1927 80.7159C54.4191 80.323 54.7448 79.9968 55.137 79.77C55.5291 79.5433 55.9739 79.4239 56.4266 79.4239C56.8793 79.4239 57.3241 79.5433 57.7163 79.77C58.1084 79.9968 58.4341 80.323 58.6606 80.7159L58.6606 80.716L79.3205 116.55Z" fill="#58C08B" stroke="#58C08B"/>
<path d="M175.816 118.842H176.681L176.249 118.092L154.039 79.5703C153.612 78.829 152.997 78.2133 152.257 77.7851C151.516 77.357 150.676 77.1316 149.821 77.1316C148.966 77.1316 148.126 77.357 147.386 77.7851C146.645 78.2133 146.03 78.829 145.603 79.5703L133.619 100.356L126.75 88.4411C126.75 88.4411 126.75 88.4411 126.75 88.441C126.4 87.8336 125.896 87.3291 125.289 86.9783C124.682 86.6275 123.994 86.4427 123.293 86.4427C122.593 86.4427 121.904 86.6275 121.298 86.9783C120.691 87.3291 120.187 87.8336 119.837 88.441C119.837 88.4411 119.837 88.4411 119.837 88.4411L102.742 118.092L102.31 118.842H103.175H175.816ZM172.715 116.55H106.276L121.821 89.5867L121.821 89.5866C121.97 89.3276 122.185 89.1127 122.444 88.9632C122.702 88.8138 122.995 88.7352 123.293 88.7352C123.592 88.7352 123.885 88.8138 124.143 88.9632C124.402 89.1127 124.616 89.3277 124.765 89.5866L124.765 89.5867L133.186 104.192L133.619 104.943L134.052 104.192L147.587 80.716L147.587 80.7159C147.814 80.323 148.139 79.9968 148.532 79.77C148.924 79.5433 149.369 79.424 149.821 79.424C150.274 79.424 150.719 79.5433 151.111 79.77C151.503 79.9968 151.829 80.323 152.055 80.7159L152.055 80.716L172.715 116.55Z" fill="#58C08B" stroke="#58C08B"/>
<path d="M82.3597 118.842H82.3602C83.3561 118.841 84.3103 118.443 85.0139 117.737C85.7174 117.031 86.1128 116.074 86.114 115.076V115.076V71.3192V71.3186C86.1129 70.3208 85.7174 69.3638 85.0139 68.6576C84.3104 67.9514 83.3561 67.5538 82.3602 67.5526H82.3597L4.25438 67.5526L4.25379 67.5526C3.25798 67.5538 2.30367 67.9514 1.60009 68.6576C0.896577 69.3638 0.501168 70.3208 0.5 71.3186V71.3192L0.5 115.075L0.5 115.076C0.501164 116.074 0.896571 117.031 1.60008 117.737C2.30365 118.443 3.25795 118.841 4.25377 118.842H4.25436H82.3597ZM3.22847 70.2868C3.501 70.0133 3.87009 69.8597 4.2547 69.8593C4.25477 69.8593 4.25483 69.8593 4.2549 69.8593L82.3594 69.8592C82.744 69.8597 83.113 70.0132 83.3855 70.2868C83.6582 70.5604 83.8119 70.9319 83.8123 71.3197V115.075C83.8119 115.463 83.6582 115.834 83.3855 116.108C83.113 116.382 82.7438 116.535 82.3591 116.535H4.2549C3.87022 116.535 3.50105 116.382 3.22847 116.108C2.95587 115.834 2.80219 115.463 2.80171 115.075V71.3196C2.80219 70.9318 2.95587 70.5605 3.22847 70.2868Z" fill="#58C08B" stroke="#58C08B"/>
<path d="M21.5842 256.737C21.2212 256.736 20.8627 256.813 20.5296 256.961M21.5842 256.737C21.5843 256.737 21.5845 256.737 21.5847 256.737L21.5838 257.237V256.737H21.5842ZM21.5842 256.737H66.6263M20.5296 256.961L66.6267 257.237M20.5296 256.961C20.1964 257.11 19.8961 257.326 19.6449 257.597C19.3938 257.867 19.1964 258.186 19.0623 258.535C18.9282 258.883 18.8596 259.256 18.8596 259.632C18.8596 260.007 18.9282 260.38 19.0623 260.728C19.1964 261.077 19.3938 261.396 19.6449 261.667C19.8961 261.937 20.1963 262.154 20.5296 262.302C20.8627 262.45 21.2212 262.527 21.5841 262.526M20.5296 256.961L21.5838 262.026M66.6263 256.737C66.6261 256.737 66.626 256.737 66.6258 256.737L66.6267 257.237M66.6263 256.737H66.6267V257.237M66.6263 256.737C66.9893 256.736 67.3478 256.813 67.6809 256.961C68.0141 257.11 68.3144 257.326 68.5656 257.597C68.8167 257.867 69.0141 258.186 69.1482 258.535C69.2822 258.883 69.3508 259.256 69.3508 259.632C69.3508 260.007 69.2822 260.38 69.1482 260.728C69.0141 261.077 68.8167 261.396 68.5656 261.667C68.3144 261.937 68.0142 262.154 67.6809 262.302C67.3478 262.45 66.9893 262.527 66.6264 262.526M66.6267 257.237V262.026M66.6264 262.526C66.6262 262.526 66.626 262.526 66.6258 262.526L66.6267 262.026M66.6264 262.526H66.6267V262.026M66.6264 262.526H21.5841M66.6267 262.026H21.5838M21.5841 262.526C21.5843 262.526 21.5845 262.526 21.5847 262.526L21.5838 262.026M21.5841 262.526H21.5838V262.026" fill="#58C08B" stroke="#58C08B"/>
<path d="M21.5804 269.509C20.8461 269.509 20.1503 269.824 19.6434 270.37C19.1378 270.915 18.8596 271.647 18.8596 272.404C18.8596 273.16 19.1378 273.892 19.6434 274.437C20.1503 274.983 20.8461 275.298 21.5804 275.298H66.6301C67.3643 275.298 68.0602 274.983 68.567 274.437C69.0727 273.892 69.3508 273.16 69.3508 272.404C69.3508 271.647 69.0727 270.915 68.567 270.37C68.0602 269.824 67.3644 269.509 66.6301 269.509H21.5804Z" fill="#58C08B" stroke="#58C08B"/>
<path d="M58.1754 298.347V298.347C58.1754 295.485 57.3268 292.687 55.7369 290.308C54.147 287.928 51.8872 286.074 49.2433 284.979C46.5994 283.883 43.6901 283.597 40.8833 284.155C38.0765 284.714 35.4984 286.092 33.4748 288.115C31.4512 290.139 30.0731 292.717 29.5148 295.524C28.9565 298.33 29.2431 301.24 30.3382 303.884C31.4334 306.528 33.2879 308.787 35.6674 310.377C38.0469 311.967 40.8443 312.816 43.7061 312.816H43.7067C47.5427 312.811 51.2203 311.286 53.9328 308.573C56.6453 305.861 58.1711 302.183 58.1754 298.347ZM36.9494 288.234C38.944 286.902 41.2882 286.189 43.6868 286.185L43.7055 286.185C46.93 286.189 50.0214 287.471 52.3014 289.751C54.5815 292.031 55.8641 295.123 55.8679 298.347C55.8678 300.752 55.1545 303.103 53.8183 305.103C52.4819 307.103 50.5825 308.662 48.3602 309.582C46.138 310.503 43.6926 310.744 41.3335 310.275C38.9743 309.805 36.8073 308.647 35.1065 306.946C33.4056 305.245 32.2473 303.078 31.778 300.719C31.3088 298.36 31.5496 295.915 32.4701 293.692C33.3906 291.47 34.9494 289.571 36.9494 288.234Z" fill="#58C08B" stroke="#58C08B"/>
<path d="M163.995 311.622L164.355 311.956C164.104 312.227 163.803 312.443 163.47 312.591C163.137 312.74 162.779 312.816 162.416 312.816M163.995 311.622L162.416 312.316M163.995 311.622L164.355 311.956C164.606 311.686 164.804 311.367 164.938 311.018C165.072 310.669 165.14 310.297 165.14 309.921C165.14 309.546 165.072 309.173 164.938 308.824C164.804 308.476 164.606 308.156 164.355 307.886L163.989 308.226L164.355 307.886C164.104 307.616 163.803 307.399 163.47 307.251C163.137 307.102 162.779 307.026 162.416 307.026M163.995 311.622L162.416 307.526M162.416 312.816C162.415 312.816 162.415 312.816 162.415 312.816L162.416 312.316M162.416 312.816H162.416V312.316M162.416 312.816H117.366H117.365C116.632 312.814 115.937 312.499 115.431 311.953C114.927 311.408 114.649 310.676 114.649 309.921C114.649 309.166 114.927 308.435 115.431 307.889C115.937 307.343 116.632 307.028 117.365 307.026L117.366 307.026L162.416 307.026M162.416 312.316H117.366C116.778 312.315 116.214 312.062 115.798 311.613C115.383 311.164 115.149 310.555 115.149 309.921C115.149 309.287 115.383 308.678 115.798 308.229C116.214 307.78 116.778 307.527 117.366 307.526H162.416M162.416 307.026C162.415 307.026 162.415 307.026 162.415 307.026L162.416 307.526M162.416 307.026H162.416V307.526" fill="#58C08B" stroke="#58C08B"/>
<path d="M162.416 299.246C162.766 299.246 163.114 299.185 163.441 299.063L162.416 294.754V294.254H162.416H117.37C116.664 294.254 115.979 294.506 115.465 294.967C114.95 295.43 114.649 296.07 114.649 296.75C114.649 297.43 114.95 298.07 115.465 298.533C115.979 298.994 116.664 299.246 117.37 299.246L162.415 299.246L162.416 298.746V299.246H162.416Z" fill="#58C08B" stroke="#58C08B"/>
<path d="M139.496 256.737L139.495 256.737C135.659 256.741 131.981 258.267 129.269 260.979C126.556 263.692 125.031 267.37 125.026 271.206V271.206V271.206C125.026 274.068 125.875 276.865 127.465 279.245C129.055 281.624 131.315 283.479 133.959 284.574C136.602 285.669 139.512 285.956 142.318 285.397C145.125 284.839 147.703 283.461 149.727 281.437C151.751 279.414 153.129 276.836 153.687 274.029C154.245 271.222 153.959 268.313 152.864 265.669C151.768 263.025 149.914 260.765 147.534 259.175C145.155 257.585 142.357 256.737 139.496 256.737ZM146.252 281.318C144.258 282.651 141.914 283.364 139.515 283.368L139.496 283.368C136.272 283.364 133.18 282.081 130.9 279.801C128.62 277.521 127.338 274.43 127.334 271.206C127.334 268.801 128.047 266.449 129.384 264.449C130.72 262.449 132.619 260.891 134.842 259.97C137.064 259.05 139.509 258.809 141.868 259.278C144.228 259.747 146.395 260.906 148.095 262.607C149.796 264.307 150.955 266.474 151.424 268.834C151.893 271.193 151.652 273.638 150.732 275.86C149.811 278.083 148.252 279.982 146.252 281.318Z" fill="#58C08B" stroke="#58C08B"/>
</svg>
