<svg width="185" height="106" viewBox="0 0 185 106" fill="none" xmlns="http://www.w3.org/2000/svg">
<g clip-path="url(#clip0)">
<path d="M40.0844 94.0914C45.3979 94.0914 49.7054 89.796 49.7054 84.4972C49.7054 79.1985 45.3979 74.9031 40.0844 74.9031C34.7708 74.9031 30.4633 79.1985 30.4633 84.4972C30.4633 89.796 34.7708 94.0914 40.0844 94.0914Z" fill="#F2F2F2"/>
<path d="M41.6488 92.6874C46.9623 92.6874 51.2698 88.3919 51.2698 83.0932C51.2698 77.7945 46.9623 73.499 41.6488 73.499C36.3352 73.499 32.0277 77.7945 32.0277 83.0932C32.0277 88.3919 36.3352 92.6874 41.6488 92.6874Z" fill="#58C08B"/>
<path d="M168.435 72.4773H49.3971V72.8012H168.435V72.4773Z" fill="white"/>
<path d="M111.047 3.0205H68.7959V2.1521H49.6376V3.0205H7.21217C6.83685 3.0205 6.46521 3.09422 6.11846 3.23744C5.77172 3.38067 5.45666 3.5906 5.19127 3.85524C4.92588 4.11989 4.71536 4.43407 4.57174 4.77985C4.42811 5.12562 4.35419 5.49623 4.35419 5.87049V63.5638C4.35419 64.3196 4.65529 65.0445 5.19127 65.579C5.72724 66.1135 6.45418 66.4138 7.21217 66.4138H111.047C111.805 66.4138 112.532 66.1135 113.068 65.579C113.604 65.0445 113.905 64.3196 113.905 63.5638V5.87049C113.905 5.49623 113.831 5.12562 113.688 4.77985C113.544 4.43407 113.333 4.11989 113.068 3.85524C112.803 3.5906 112.488 3.38067 112.141 3.23744C111.794 3.09422 111.422 3.0205 111.047 3.0205Z" fill="white"/>
<path d="M110.073 8.05737H8.18579V65.3718H110.073V8.05737Z" fill="#58C08B"/>
<path d="M59.0426 6.49407C59.6197 6.49407 60.0876 6.02752 60.0876 5.45199C60.0876 4.87647 59.6197 4.40991 59.0426 4.40991C58.4654 4.40991 57.9976 4.87647 57.9976 5.45199C57.9976 6.02752 58.4654 6.49407 59.0426 6.49407Z" fill="#58C08B"/>
<path opacity="0.1" d="M80.9353 65.3718H8.18585V8.05737L80.9353 65.3718Z" fill="black"/>
<path d="M24.1282 61.0831C29.5371 61.0831 33.9219 56.7105 33.9219 51.3167C33.9219 45.9229 29.5371 41.5503 24.1282 41.5503C18.7192 41.5503 14.3344 45.9229 14.3344 51.3167C14.3344 56.7105 18.7192 61.0831 24.1282 61.0831Z" fill="#F2F2F2"/>
<path d="M92.3331 38.9675H82.8157V40.9507H92.3331V38.9675Z" fill="white"/>
<path d="M103.839 23.5271H71.3096V24.377H103.839V23.5271Z" fill="white"/>
<path d="M103.839 26.2185H71.3096V27.0684H103.839V26.2185Z" fill="white"/>
<path d="M103.839 28.9102H71.3096V29.7601H103.839V28.9102Z" fill="white"/>
<path d="M103.839 31.6016H71.3096V32.4515H103.839V31.6016Z" fill="white"/>
<path d="M103.839 34.293H71.3096V35.1429H103.839V34.293Z" fill="white"/>
<path d="M103.839 9.22021H99.8618V13.1865H103.839V9.22021Z" fill="#F2F2F2"/>
<path d="M105.686 15.0279H100.856V10.2117H105.686V15.0279ZM101.066 14.8185H105.476V10.4211H101.066V14.8185Z" fill="white"/>
<path d="M116.766 64.3297H106.822V63.6153C106.822 63.5967 106.819 63.5783 106.812 63.5611C106.804 63.5439 106.794 63.5283 106.781 63.5151C106.768 63.502 106.752 63.4915 106.735 63.4844C106.717 63.4773 106.699 63.4736 106.68 63.4736H103.271C103.252 63.4736 103.234 63.4773 103.217 63.4844C103.199 63.4915 103.184 63.502 103.171 63.5151C103.157 63.5283 103.147 63.5439 103.14 63.5611C103.133 63.5783 103.129 63.5967 103.129 63.6153V64.3297H100.998V63.6153C100.998 63.5967 100.995 63.5783 100.987 63.5611C100.98 63.5439 100.97 63.5283 100.957 63.5151C100.943 63.502 100.928 63.4915 100.911 63.4844C100.893 63.4773 100.875 63.4736 100.856 63.4736H97.447C97.4283 63.4736 97.4098 63.4773 97.3926 63.4844C97.3754 63.4915 97.3597 63.502 97.3465 63.5151C97.3333 63.5283 97.3229 63.5439 97.3157 63.5611C97.3086 63.5783 97.3049 63.5967 97.3049 63.6153V64.3297H95.1741V63.6153C95.1741 63.5967 95.1705 63.5783 95.1633 63.5611C95.1562 63.5439 95.1457 63.5283 95.1326 63.5151C95.1194 63.502 95.1037 63.4915 95.0865 63.4844C95.0692 63.4773 95.0508 63.4736 95.0321 63.4736H91.6229C91.6042 63.4736 91.5858 63.4773 91.5685 63.4844C91.5513 63.4915 91.5356 63.502 91.5224 63.5151C91.5092 63.5283 91.4988 63.5439 91.4917 63.5611C91.4845 63.5783 91.4808 63.5967 91.4808 63.6153V64.3297H89.3501V63.6153C89.3501 63.5967 89.3464 63.5783 89.3392 63.5611C89.3321 63.5439 89.3216 63.5283 89.3085 63.5151C89.2953 63.502 89.2796 63.4915 89.2624 63.4844C89.2451 63.4773 89.2267 63.4736 89.208 63.4736H85.7988C85.7801 63.4736 85.7617 63.4773 85.7444 63.4844C85.7272 63.4915 85.7115 63.502 85.6983 63.5151C85.6852 63.5283 85.6747 63.5439 85.6675 63.5611C85.6604 63.5783 85.6567 63.5967 85.6567 63.6153V64.3297H83.526V63.6153C83.526 63.5967 83.5223 63.5783 83.5152 63.5611C83.508 63.5439 83.4976 63.5283 83.4844 63.5151C83.4712 63.502 83.4555 63.4915 83.4383 63.4844C83.4211 63.4773 83.4026 63.4736 83.3839 63.4736H79.9747C79.956 63.4736 79.9376 63.4773 79.9203 63.4844C79.9031 63.4915 79.8875 63.502 79.8743 63.5151C79.8611 63.5283 79.8506 63.5439 79.8435 63.5611C79.8363 63.5783 79.8326 63.5967 79.8326 63.6153V64.3297H77.7019V63.6153C77.7019 63.5967 77.6982 63.5783 77.6911 63.5611C77.6839 63.5439 77.6735 63.5283 77.6603 63.5151C77.6471 63.502 77.6314 63.4915 77.6142 63.4844C77.597 63.4773 77.5785 63.4736 77.5598 63.4736H74.1506C74.132 63.4736 74.1135 63.4773 74.0962 63.4844C74.079 63.4915 74.0634 63.502 74.0502 63.5151C74.037 63.5283 74.0265 63.5439 74.0194 63.5611C74.0122 63.5783 74.0086 63.5967 74.0086 63.6153V64.3297H71.8778V63.6153C71.8778 63.5967 71.8741 63.5783 71.867 63.5611C71.8598 63.5439 71.8494 63.5283 71.8362 63.5151C71.823 63.502 71.8073 63.4915 71.7901 63.4844C71.7729 63.4773 71.7544 63.4736 71.7357 63.4736H45.0302C45.0115 63.4736 44.993 63.4773 44.9758 63.4844C44.9586 63.4915 44.9429 63.502 44.9297 63.5151C44.9165 63.5283 44.9061 63.5439 44.8989 63.5611C44.8918 63.5783 44.8881 63.5967 44.8881 63.6153V64.3297H42.7573V63.6153C42.7573 63.5967 42.7537 63.5783 42.7465 63.5611C42.7394 63.5439 42.7289 63.5283 42.7157 63.5151C42.7025 63.502 42.6869 63.4915 42.6697 63.4844C42.6524 63.4773 42.6339 63.4736 42.6153 63.4736H39.2061C39.1874 63.4736 39.1689 63.4773 39.1517 63.4844C39.1345 63.4915 39.1188 63.502 39.1056 63.5151C39.0924 63.5283 39.082 63.5439 39.0748 63.5611C39.0677 63.5783 39.064 63.5967 39.064 63.6153V64.3297H36.9333V63.6153C36.9333 63.5967 36.9296 63.5783 36.9224 63.5611C36.9153 63.5439 36.9048 63.5283 36.8916 63.5151C36.8785 63.502 36.8628 63.4915 36.8456 63.4844C36.8283 63.4773 36.8099 63.4736 36.7912 63.4736H33.382C33.3633 63.4736 33.3449 63.4773 33.3276 63.4844C33.3104 63.4915 33.2947 63.502 33.2815 63.5151C33.2683 63.5283 33.2579 63.5439 33.2507 63.5611C33.2436 63.5783 33.2399 63.5967 33.2399 63.6153V64.3297H31.1092V63.6153C31.1092 63.5967 31.1055 63.5783 31.0984 63.5611C31.0912 63.5439 31.0807 63.5283 31.0676 63.5151C31.0544 63.502 31.0387 63.4915 31.0215 63.4844C31.0042 63.4773 30.9858 63.4736 30.9671 63.4736H27.5579C27.5392 63.4736 27.5208 63.4773 27.5035 63.4844C27.4863 63.4915 27.4706 63.502 27.4574 63.5151C27.4443 63.5283 27.4338 63.5439 27.4266 63.5611C27.4195 63.5783 27.4158 63.5967 27.4158 63.6153V64.3297H25.2851V63.6153C25.2851 63.5967 25.2814 63.5783 25.2743 63.5611C25.2671 63.5439 25.2567 63.5283 25.2435 63.5151C25.2303 63.502 25.2146 63.4915 25.1974 63.4844C25.1802 63.4773 25.1617 63.4736 25.143 63.4736H21.7338C21.7151 63.4736 21.6967 63.4773 21.6794 63.4844C21.6622 63.4915 21.6465 63.502 21.6334 63.5151C21.6202 63.5283 21.6097 63.5439 21.6026 63.5611C21.5954 63.5783 21.5917 63.5967 21.5917 63.6153V64.3297H19.461V63.6153C19.461 63.5967 19.4573 63.5783 19.4502 63.5611C19.443 63.5439 19.4326 63.5283 19.4194 63.5151C19.4062 63.502 19.3905 63.4915 19.3733 63.4844C19.3561 63.4773 19.3376 63.4736 19.3189 63.4736H15.9097C15.8911 63.4736 15.8726 63.4773 15.8553 63.4844C15.8381 63.4915 15.8225 63.502 15.8093 63.5151C15.7961 63.5283 15.7856 63.5439 15.7785 63.5611C15.7713 63.5783 15.7677 63.5967 15.7677 63.6153V64.3297H13.6369V63.6153C13.6369 63.5967 13.6332 63.5783 13.6261 63.5611C13.6189 63.5439 13.6085 63.5283 13.5953 63.5151C13.5821 63.502 13.5664 63.4915 13.5492 63.4844C13.532 63.4773 13.5135 63.4736 13.4948 63.4736H10.0856C10.067 63.4736 10.0485 63.4773 10.0313 63.4844C10.014 63.4915 9.99836 63.502 9.98517 63.5151C9.97198 63.5283 9.96152 63.5439 9.95438 63.5611C9.94724 63.5783 9.94357 63.5967 9.94357 63.6153V64.3297H3.40922C2.50504 64.3297 1.63789 64.6879 0.99854 65.3255C0.359186 65.963 8.61415e-07 66.8277 0 67.7294V69.2667C2.58425e-06 70.1683 0.359189 71.0331 0.998542 71.6706C1.6379 72.3082 2.50504 72.6664 3.40922 72.6664H116.766C117.67 72.6664 118.537 72.3082 119.177 71.6706C119.816 71.0331 120.175 70.1683 120.175 69.2667V67.7294C120.175 66.8277 119.816 65.963 119.177 65.3255C118.537 64.6879 117.67 64.3297 116.766 64.3297Z" fill="white"/>
<path d="M26.4989 57.4164C24.0578 57.4164 21.6715 56.6946 19.6418 55.3422C17.6122 53.9898 16.0302 52.0676 15.0961 49.8186C14.1619 47.5697 13.9175 45.095 14.3937 42.7075C14.8699 40.32 16.0454 38.1269 17.7715 36.4057C19.4976 34.6844 21.6968 33.5122 24.091 33.0373C26.4852 32.5624 28.9668 32.8061 31.2221 33.7377C33.4773 34.6692 35.4049 36.2467 36.7611 38.2708C38.1173 40.2948 38.8412 42.6744 38.8412 45.1086C38.8375 48.3717 37.5359 51.5001 35.2221 53.8075C32.9083 56.1148 29.7711 57.4127 26.4989 57.4164ZM26.4989 33.1247C24.122 33.1247 21.7986 33.8275 19.8223 35.1443C17.846 36.4611 16.3057 38.3328 15.3961 40.5226C14.4866 42.7123 14.2486 45.1219 14.7123 47.4466C15.176 49.7712 16.3205 51.9066 18.0012 53.5825C19.6819 55.2585 21.8232 56.3999 24.1544 56.8623C26.4855 57.3247 28.9019 57.0874 31.0978 56.1803C33.2937 55.2733 35.1706 53.7373 36.4911 51.7665C37.8116 49.7958 38.5164 47.4788 38.5164 45.1086C38.5128 41.9314 37.2455 38.8853 34.9925 36.6387C32.7396 34.392 29.685 33.1283 26.4989 33.1247Z" fill="white"/>
<path d="M136.605 5.27026H95.1935V5.59415H136.605V5.27026Z" fill="white"/>
<path d="M185 90.7771H65.9617V91.101H185V90.7771Z" fill="white"/>
<path d="M72.7013 105.676H31.2897V106H72.7013V105.676Z" fill="white"/>
<path d="M81.037 89.0696H76.4899V93.604H81.037V89.0696Z" fill="#58C08B"/>
<path d="M83.7978 91.0132H78.2762V85.5071H83.7978V91.0132ZM78.5163 90.7738H83.5577V85.7465H78.5163V90.7738Z" fill="white"/>
<path d="M133.817 3.56274H129.269V8.0972H133.817V3.56274Z" fill="#58C08B"/>
<path d="M136.577 5.50613H131.056V0H136.577V5.50613ZM131.296 5.26673H136.337V0.239397H131.296V5.26673Z" fill="white"/>
<path d="M179.613 89.0696H175.066V93.604H179.613V89.0696Z" fill="#58C08B"/>
<path d="M182.374 91.0132H176.852V85.5071H182.374V91.0132ZM177.092 90.7738H182.134V85.7465H177.092V90.7738Z" fill="white"/>
<path d="M171.683 37.5644H171.297V27.0119C171.297 26.2098 171.139 25.4156 170.831 24.6746C170.523 23.9336 170.072 23.2603 169.503 22.6932C168.935 22.126 168.259 21.6761 167.516 21.3692C166.773 21.0623 165.977 20.9043 165.172 20.9043H142.753C141.948 20.9043 141.152 21.0623 140.409 21.3692C139.666 21.6761 138.991 22.126 138.422 22.6932C137.853 23.2603 137.402 23.9336 137.094 24.6746C136.786 25.4156 136.628 26.2098 136.628 27.0119V84.9042C136.628 85.7062 136.786 86.5004 137.094 87.2414C137.402 87.9824 137.853 88.6557 138.422 89.2229C138.991 89.79 139.666 90.2399 140.409 90.5468C141.152 90.8538 141.948 91.0117 142.753 91.0117H165.172C165.977 91.0117 166.773 90.8538 167.516 90.5468C168.259 90.2399 168.935 89.79 169.503 89.2229C170.072 88.6557 170.523 87.9824 170.831 87.2414C171.139 86.5004 171.297 85.7062 171.297 84.9042V45.076H171.683V37.5644Z" fill="white"/>
<path d="M169.993 27.3709V85.1788C169.993 86.3885 169.511 87.5487 168.654 88.4043C167.796 89.2598 166.633 89.7406 165.42 89.7408H142.892C141.679 89.7406 140.515 89.2598 139.658 88.4043C138.8 87.5487 138.318 86.3885 138.319 85.1788V27.3709C138.319 26.1615 138.801 25.0016 139.658 24.1464C140.516 23.2912 141.679 22.8107 142.892 22.8105H145.625C145.49 23.1396 145.439 23.4965 145.475 23.8499C145.512 24.2034 145.635 24.5425 145.834 24.8373C146.032 25.1322 146.301 25.3738 146.615 25.5408C146.93 25.7079 147.281 25.7952 147.637 25.7952H160.481C160.837 25.7952 161.188 25.7079 161.503 25.5408C161.817 25.3738 162.086 25.1322 162.284 24.8373C162.483 24.5425 162.606 24.2034 162.643 23.8499C162.679 23.4965 162.628 23.1396 162.493 22.8105H165.42C166.632 22.8107 167.796 23.2912 168.653 24.1464C169.511 25.0016 169.993 26.1615 169.993 27.3709Z" fill="#58C08B"/>
<path d="M157.511 60.9265H150.8V62.9097H157.511V60.9265Z" fill="white"/>
<path d="M165.624 45.4863H142.687V46.3363H165.624V45.4863Z" fill="white"/>
<path d="M165.624 48.1777H142.687V49.0277H165.624V48.1777Z" fill="white"/>
<path d="M165.624 50.8691H142.687V51.7191H165.624V50.8691Z" fill="white"/>
<path d="M165.624 53.5605H142.687V54.4105H165.624V53.5605Z" fill="white"/>
<path d="M165.624 56.252H142.687V57.1019H165.624V56.252Z" fill="white"/>
<path d="M154.957 34.1995H150.979V38.1658H154.957V34.1995Z" fill="#F2F2F2"/>
<path d="M152.502 35.1912V40.0074H157.332V35.1912H152.502ZM157.122 39.7985H152.712V35.4001H157.122V39.7985Z" fill="white"/>
<path opacity="0.1" d="M169.993 79.0054V85.1787C169.993 86.3884 169.511 87.5486 168.654 88.4042C167.796 89.2597 166.633 89.7405 165.42 89.7407H142.892C141.679 89.7405 140.515 89.2597 139.658 88.4042C138.8 87.5486 138.318 86.3884 138.319 85.1787V54.0513L157.298 69.0036L157.623 69.2595L161.153 72.0401L161.483 72.3009L169.993 79.0054Z" fill="black"/>
<path d="M152.207 87.8673C156.141 87.8673 159.331 84.6866 159.331 80.7631C159.331 76.8396 156.141 73.6589 152.207 73.6589C148.272 73.6589 145.083 76.8396 145.083 80.7631C145.083 84.6866 148.272 87.8673 152.207 87.8673Z" fill="#F2F2F2"/>
<path d="M51.9955 106C49.2011 106 46.4694 105.174 44.146 103.626C41.8225 102.077 40.0116 99.8769 38.9423 97.3025C37.8729 94.728 37.5931 91.8951 38.1382 89.1621C38.6834 86.429 40.029 83.9186 42.005 81.9482C43.9809 79.9778 46.4984 78.6359 49.2391 78.0923C51.9798 77.5486 54.8206 77.8276 57.4023 78.894C59.984 79.9604 62.1906 81.7662 63.7431 84.0832C65.2955 86.4002 66.1242 89.1242 66.1242 91.9107C66.1199 95.6461 64.63 99.2273 61.9813 101.869C59.3326 104.51 55.7413 105.996 51.9955 106ZM51.9955 78.1454C49.2653 78.1454 46.5965 78.9527 44.3264 80.4653C42.0564 81.9779 40.2871 84.1277 39.2423 86.643C38.1975 89.1583 37.9242 91.926 38.4568 94.5962C38.9894 97.2664 40.3041 99.7192 42.2346 101.644C44.1651 103.569 46.6248 104.88 49.3025 105.412C51.9802 105.943 54.7557 105.67 57.278 104.628C59.8003 103.586 61.9562 101.822 63.473 99.5584C64.9898 97.2947 65.7994 94.6333 65.7994 91.9107C65.7952 88.2612 64.3396 84.7624 61.7517 82.1818C59.1639 79.6012 55.6552 78.1496 51.9955 78.1454Z" fill="white"/>
<path d="M154.307 86.2427C152.54 86.2427 150.813 85.7203 149.344 84.7416C147.876 83.7629 146.731 82.3718 146.055 80.7442C145.379 79.1167 145.202 77.3258 145.546 75.598C145.891 73.8702 146.742 72.2832 147.991 71.0375C149.24 69.7918 150.832 68.9435 152.564 68.5999C154.297 68.2562 156.093 68.4326 157.725 69.1067C159.357 69.7809 160.752 70.9225 161.733 72.3872C162.715 73.852 163.239 75.5741 163.239 77.3357C163.236 79.6971 162.294 81.9611 160.62 83.6309C158.945 85.3007 156.675 86.24 154.307 86.2427ZM154.307 68.7526C152.604 68.7526 150.94 69.256 149.525 70.1991C148.109 71.1422 147.006 72.4827 146.355 74.0511C145.703 75.6194 145.533 77.3452 145.865 79.0102C146.197 80.6751 147.017 82.2045 148.221 83.4049C149.424 84.6052 150.958 85.4227 152.628 85.7539C154.297 86.085 156.028 85.9151 157.6 85.2654C159.173 84.6158 160.517 83.5157 161.463 82.1042C162.409 80.6927 162.914 79.0333 162.914 77.3357C162.911 75.0601 162.004 72.8784 160.39 71.2694C158.776 69.6603 156.589 68.7552 154.307 68.7526Z" fill="white"/>
</g>
<defs>
<clipPath id="clip0">
<rect width="185" height="106" rx="15" fill="white"/>
</clipPath>
</defs>
</svg>
